<svg width="145" height="30" viewBox="0 0 145 30" fill="none" xmlns="http://www.w3.org/2000/svg">
<g clip-path="url(#clip0_227_1581)">
<path fill-rule="evenodd" clip-rule="evenodd" d="M34.9489 10.2789V7.28125H52.8609V10.2789H45.6156V22.884H42.2154V10.2789H34.9489Z" fill="#F86527"/>
<path fill-rule="evenodd" clip-rule="evenodd" d="M56.3649 7.28125V22.884H59.7862V17.4183H69.0494C69.694 17.4183 70.1156 17.5554 70.3773 17.7967C70.634 18.0333 70.7919 18.4217 70.7919 19.0548V22.884H74.1921V18.6523C74.1921 17.6928 73.8642 16.9067 73.2671 16.3544C72.9253 16.0383 72.5047 15.8073 72.0255 15.6619C72.5977 15.3836 73.0714 15.0168 73.4365 14.5636C74.0122 13.849 74.298 12.9443 74.298 11.8943C74.298 10.4152 73.8044 9.23925 72.7523 8.44439C71.7156 7.66117 70.1794 7.28125 68.1596 7.28125H56.3649ZM67.5665 14.5054H59.7862V10.173H67.5665C68.6983 10.173 69.5072 10.3223 70.0276 10.6499C70.5182 10.9587 70.7919 11.4522 70.7919 12.2756C70.7919 13.1124 70.5157 13.6415 70.0192 13.9783C69.4992 14.3312 68.692 14.5054 67.5665 14.5054Z" fill="#F86527"/>
<path fill-rule="evenodd" clip-rule="evenodd" d="M78.5827 22.884V7.28125H83.3207L90.1229 18.9421L96.9044 7.28125H101.621V22.884H98.2212V11.3754L91.6053 22.884H88.62L82.0041 11.3754V22.884H78.5827Z" fill="#F86527"/>
<path fill-rule="evenodd" clip-rule="evenodd" d="M110.897 7.28125H106.304V22.884H109.725V10.8879L120.66 22.884H125.232V7.28125H121.832V19.2774L110.897 7.28125Z" fill="#F86527"/>
<path fill-rule="evenodd" clip-rule="evenodd" d="M133.35 7.28125H129.928V22.884H144.641V19.8864H133.35V7.28125Z" fill="#F86527"/>
<path fill-rule="evenodd" clip-rule="evenodd" d="M8.02188 2.11328L15.8862 5.07445L14.4258 8.98481L6.56146 6.02364L8.02188 2.11328Z" fill="#F86527"/>
<path fill-rule="evenodd" clip-rule="evenodd" d="M20.6315 1.14647L23.2291 9.16642L19.2738 10.458L16.6761 2.43807L20.6315 1.14647Z" fill="#F86527"/>
<path fill-rule="evenodd" clip-rule="evenodd" d="M29.244 10.4452L24.6188 17.4848L21.147 15.185L25.7722 8.14549L29.244 10.4452Z" fill="#F86527"/>
<path fill-rule="evenodd" clip-rule="evenodd" d="M27.374 23.0034L19.0089 23.7616L18.6349 19.6023L27 18.8441L27.374 23.0034Z" fill="#F86527"/>
<path fill-rule="evenodd" clip-rule="evenodd" d="M16.4297 29.3638L10.6237 23.2697L13.6293 20.3828L19.4352 26.4769L16.4297 29.3638Z" fill="#F86527"/>
<path fill-rule="evenodd" clip-rule="evenodd" d="M4.65232 24.7423L5.77753 16.3849L9.89932 16.9443L8.77411 25.3017L4.65232 24.7423Z" fill="#F86527"/>
<path fill-rule="evenodd" clip-rule="evenodd" d="M0.910558 12.6074L8.11961 8.28L10.2539 11.8645L3.04481 16.192L0.910558 12.6074Z" fill="#F86527"/>
</g>
<defs>
<clipPath id="clip0_227_1581">
<rect width="145" height="30" fill="white"/>
</clipPath>
</defs>
</svg>
